<?xml version="1.0" encoding="UTF-8"?>
<svg id="_图层_2" data-name="图层 2" xmlns="http://www.w3.org/2000/svg" viewBox="0 0 453.31 817.55">
  <defs>
    <style>
      .cls-1 {
        fill: #6c9074;
      }

      .cls-2 {
        fill: #d67e80;
      }

      .cls-3 {
        fill: #d7e8d8;
      }

      .cls-4 {
        fill: #699272;
      }

      .cls-5 {
        fill: #82ac80;
      }

      .cls-6 {
        fill: #9ec19e;
      }

      .cls-7 {
        fill: #d57f7d;
      }

      .cls-8 {
        fill: #9c9d97;
      }

      .cls-9 {
        fill: #678f70;
      }

      .cls-10 {
        fill: #7b1d1e;
      }

      .cls-11 {
        fill: #c6c5c1;
      }

      .cls-12 {
        fill: #d6e7d6;
      }

      .cls-13 {
        fill: #d7e9d8;
      }

      .cls-14 {
        fill: #c7c6c2;
      }

      .cls-15 {
        fill: #c6c5c0;
      }

      .cls-16 {
        fill: #636664;
      }

      .cls-17 {
        fill: #9a292d;
      }

      .cls-18 {
        fill: #678a6e;
      }

      .cls-19 {
        fill: #698d71;
      }

      .cls-20 {
        fill: #9e9f99;
      }

      .cls-21 {
        fill: #99c099;
      }

      .cls-22 {
        fill: #9fa19a;
      }

      .cls-23 {
        fill: #606360;
      }

      .cls-24 {
        fill: #9fa09a;
      }

      .cls-25 {
        fill: #97c196;
      }

      .cls-26 {
        fill: #606460;
      }

      .cls-27 {
        fill: #c4c5be;
      }

      .cls-28 {
        fill: #678e70;
      }

      .cls-29 {
        fill: #b12f34;
      }

      .cls-30 {
        fill: #c6c6c1;
      }

      .cls-31 {
        fill: #d5e7d5;
      }

      .cls-32 {
        fill: #6b8b73;
      }

      .cls-33 {
        fill: #9fa19b;
      }

      .cls-34 {
        fill: #99c198;
      }

      .cls-35 {
        fill: #831e20;
      }

      .cls-36 {
        fill: #9e9f9a;
      }

      .cls-37 {
        fill: #c5c4c0;
      }

      .cls-38 {
        fill: #7d7f7b;
      }

      .cls-39 {
        fill: #9ea09a;
      }

      .cls-40 {
        fill: #5f6361;
      }

      .cls-41 {
        fill: #851f21;
      }

      .cls-42 {
        fill: #881d1d;
      }

      .cls-43 {
        fill: #94c293;
      }

      .cls-44 {
        fill: #c5c7c1;
      }

      .cls-45 {
        fill: #616360;
      }

      .cls-46 {
        fill: #99272c;
      }

      .cls-47 {
        fill: #648b6d;
      }

      .cls-48 {
        fill: #9aa097;
      }

      .cls-49 {
        fill: #60635f;
      }

      .cls-50 {
        fill: #60625f;
      }

      .cls-51 {
        fill: #9ea19a;
      }

      .cls-52 {
        fill: #668c6f;
      }

      .cls-53 {
        fill: #678c70;
      }
    </style>
  </defs>
  <g id="_图层_1-2" data-name="图层 1">
    <g>
      <path class="cls-15" d="M330.02,475.82c5.23-.16,32.28-1.21,33,5.46l-27,68.54-3.48,2.63c-34.96,12.7-71.34,22.52-107.52,31.37l-2.1,2.44c-8.77,2.3-17.36,5.15-25.78,8.57l-3.12-1.01-.79-1.96,77.1-67.25-17.95,5.11c-20.62,3.83-3.21-9.67,7.06-12.62l43.54-16.78c-46.45,2.64-90.69,20.19-129.78,42.9l-2.17-1.41c.76-5.46,7.58-10.36,13-11,1.68-5.21,7.64-8.82,13-9,4.19-6.15,14.93-13.67,22.05-16.55l4.95-.45c-1.26-1.37-.72-1.84,1-1,.34-.75.71-1.47,1.19-2.11,4.37-5.84,40.15-16.75,49.37-19.22s45.56-10.92,52.37-7.93c.73.32,1.41.77,2.07,1.26Z"/>
      <path class="cls-36" d="M171.02,541.82c6.74-1.73,22.13-12.48,30.33-16.17,34.09-15.34,72.94-27.4,110.67-27.82-18.18,11.08-50.47,17.2-67.01,29.48-1.52,1.13-1.56,1.53.49,1.51,8.17-.1,21.44-7.47,30.51-6.51l-81.99,71.51-1.81,2.05c-25.25,9.16-48.66,21.64-70.21,37.44l-4.97,1.51c5.34-12.66-4.05-37.31-.9-47.41,2.44-7.83,38.44-34.3,46.9-40.59-.81-2.14-.1-2.61,1.94-2.67l.06-1.33c-2.42-3.57,5.18-4.54,6-1Z"/>
      <path class="cls-20" d="M323.02,600.82c-20.8,24.51-62.04,24.76-92,32-5.81,4.59-15.68,7.08-23,6l-1.67,2.4c-.84.91-17.37,6.51-19.33,4.6l-3.21,3.4c-16.17,6.2-31.93,14.14-45.02,25.35-11.89,10.18-3.6,13.67,7.68,16,4.98,1.03,10.06,1.54,15.14,2.04l2.4,2.21c-10.07,2.25-41.37,1.17-47-8l-2.75-1.17c-4.44-22.62-3.1-33.28,16.19-46.63,17.41-12.05,36.73-21.52,55.68-30.55l1.87,1.36,9.47-2h43.32l1.2,2-1.85,2.21c-17.08,2.71-33.04,10.56-47.58,19.8,27.23-11.06,56.16-18.28,85.43-21.01l2.86-2.67c12.93-1.92,25.68-4.61,38.24-8.07l3.9.74Z"/>
      <path class="cls-28" d="M274.02,580.82l-2.7,2.18c-24.81,7.52-49.37,15.83-73.7,24.92l-9.6,1.91c-14.27,6.29-64.94,31.57-71.06,44.44-3.02,6.34-3.74,26.38.06,32.56-46.79-.74-19.98-35.01,0-52,22.05-18.75,49.85-31.52,77-41,9.62-3.36,21.06-8.33,31-10,14.3-3.87,30.06-5.11,44.87-4.73l4.13,1.73Z"/>
      <path class="cls-45" d="M187.02,645.82l2,2.43c.05,19.63,15.27,32.82,33.94,35.27l2.07,2.3c-1.39,1.19-3.26,3.41-5,5-18.83,3.26-36.78,5.54-56,4-36.8-2.94-46.27-10.86-11.3-32.8,10.8-6.78,22.45-11.61,34.3-16.2Z"/>
      <path class="cls-27" d="M331.02,564.82c-1.96,3.47-3.14,16.38-5,21,1.43,1.68-.1,3.86-1.86,4.55-3.84,1.49-7.79,2.78-11.78,3.94-21.76,6.32-44.06,11.8-66.35,15.51-.75,2.84-3.22,2.76-4,0h-54c28.57-12.59,56.25-20.27,86-29,14.56-7.55,32.14-12.06,48.32-15.87,1.37-.32,2.81-.38,4.26-.4s2.95.11,4.42.28Z"/>
      <path class="cls-34" d="M336.02,549.82c12.13-4.31,24.05-8.35,34.73-15.83,15.17,3.35-2.34,12.62-8.06,16-5.21,3.08-30.38,12.56-31.66,14.84-19.1,4.66-38.11,10.45-57,16-15.97,1.24-33.19.34-49,3,36.49-12.84,74.54-21.06,111-34Z"/>
      <path class="cls-26" d="M231.02,632.82c3.47,2.26.1,9.85,1.22,14.28,3.37,13.42,29.38,5.48,38.78,7.72-10.98,6.33-25.01,14.46-35,22-14.69-1.02-30.93-9.14-31.78-26.27-.21-4.15-.23-9.74,3.78-11.73,7.76-2.29,15.14-4.1,23-6Z"/>
      <path class="cls-33" d="M220.02,815.82c-10.95-1.8-2.1-16.95,2.31-22.61,12.08-12.71,25.31-24.18,39.69-34.39l2.38-3.61c12.21-7.8,23.68-16.62,34.38-26.46l4.23-.93c-10.13,24.45-37.65,39.07-55.02,58.48-3.77,4.21-22.3,30.92-24.46,31.25-.19.03-3.37-1.6-3.52-1.72Z"/>
      <path class="cls-21" d="M323.02,600.82c-15.28,5.73-29.68,6.51-45,10-9.88,1.96-19.82,1.68-29.78.94l-2.22-1.94c25.18-8.31,51.53-12.13,76.59-20.91,1.83-.64,2.56-2.77,3.41-3.09,4.28-1.57,18.78-8.07,21.02-5.52,6.9,7.83-19.22,18.72-24.02,20.52Z"/>
      <path class="cls-1" d="M262.02,758.82c-10.94,14.52-31.55,23.76-40.81,39.69-3,5.16-7.58,11.91-1.19,17.31-17.28,5.79-14.72-12.46-8-23,7.24-11.76,17.27-21.13,30.08-28.13l1.92,1.13c4.65-3.87,12.3-9,18-7Z"/>
      <path class="cls-37" d="M305.02,663.82l-2.19,3.21c-18.86,9.37-33.04,25.4-46.34,41.31l44.35-34.36,2.18.84c-.18,16.27,9.75,23.22,0,40l.76,2.57c-13.77,16.18-30.18,29.6-49.21,40.24l-2.55-.8c-8.64,7.2-19.76,15.88-31,16-3.5,1.46-24.11,10.01-26,8-2.63-2.78,4.68-14.03,2.5-19s-18.21-7.51-18.61-15.49c-.63-12.61,31.49-46.7,41.11-55.51-1.84-3.19,2.16-4.93,5-5-.02-4.1,6.98-9.92,11-9l1.2-3.37c8.56-7.37,23.09-15.59,33.8-18.63,6.85-3.95,29.5-19.45,36.28-16.8,8.73,3.41-1.46,21.73-2.28,25.8Z"/>
      <path class="cls-8" d="M305.02,663.82c-.58,2.84-1.97,8.54-2,11l-59.99,46.52c17.85-20.98,36.13-46.3,61.99-57.52Z"/>
      <path class="cls-6" d="M303.02,727.82c-13.34,11.03-25.53,22.78-41,31-5.09,2.7-11.56,3.46-18,7l-.65-2.04,8.65-6.96c14.46-8.57,42.71-27.74,51-42,8.33,3.38,1.93,8.34,0,13Z"/>
      <path class="cls-48" d="M252.02,756.82l-8,9c-7.86,4.32-27.36,19.71-32,27l9-20c10.42-4.34,21.29-10.25,31-16Z"/>
      <path class="cls-52" d="M208.02,638.82c-4.77,13.91-.08,25.83,13.11,32.39,4.7,2.34,11.78,1.97,14.89,5.61-3.52,2.65-7.62,6.12-11,9-22.37-2.59-38.61-16.47-38-40,7.73-2.99,13.09-4.67,21-7Z"/>
      <path class="cls-32" d="M246.02,609.82c9.8-.51,21.76,2.35,32,1-35.91,8.18-71.37,12.94-103.49,33.01,14.29-15.11,46.8-32.22,67.49-34.01,1.31-.11,2.68.07,4,0Z"/>
      <path class="cls-14" d="M182.02,280.82l5.91-1.4c23.7,1.41,47.02-4.07,69.89-9.64l4.2,1.04c4.07.19,7.88,1.91,11.43,5.16,3.21,2.15,4.72,2.52,8.41,1.9s27.63-8.55,30.05-10.29c2.62-3.76,4.9-7.75,6.85-11.98l4.27-2.79c-.28-.88-.13-1.64.52-2.26,22.38-7.22,45.08-14.72,67.25-23.12,6.71-2.54,13.37-5.2,19.87-8.16,15.34-6.99,7.32-8.53-4.27-7.78-22.51,2.19-44.86,5.24-67.06,9.15l-1.32-1.83-2.49-1c14.52-3.1,91.12-25.38,97.06-8.01.43,1.27-.26,1.98-.57,3.01l.41,2.43c-34.39,30.62-73.62,59.32-116.83,77.71l-4.57-.14-2.34-.85c-.29-3.88-.19-7.75.31-11.63-.54-1-19.11,5.37-21.52,6.44,5.26,4.32,6.38,7.58,4.55,14.03-.47,2.78-1.19,3.18-3,1-31.64,9.9-63.67,18.49-96.1,25.78-1.61-.78-1.51-2.2-1.31-3.89,7.29-7.71,13.48-16.75,18.57-26.05-57.2,11.37-122.28,18.4-178.84-3.69-10.86-4.24-25.35-10.25-31.32-20.15-.67-15.91,19.72-37.31,30.49-49.01,3.92-4.26,55.71-53.7,58.5-50.99,1.88,1.83-21.28,25.22-14.26,48.77,7.93,26.62,81.64,54.95,107.27,58.23Z"/>
      <path class="cls-39" d="M422.02,373.82c-3.59,29.26-4.58,56.27-35,69-15.73,3.87-31.73,6.04-47.99,6.52-35.5,1.98-70.87,4.9-106.23,8.5-49.29,5.02-110.08,24.47-138.22,67.81l-3.56,2.17c-1.51-6.61-1.22-13.34-2-20l-2.12-.89c-.88-4.49-4.44-31.19-3.63-33.81,1.06-3.45,12.03-11.96,15.57-14.12l2.19.81c16.88-12.38,35.33-21.45,55.11-28.2,9.9-3.37,39.62-12.36,48.18-9.92.93.27,1.83.67,2.71,1.12l-1.28,2.67c-4.04,1.77-7.66,4.35-10.71,7.52,14.96-1.6,29.9.95,44.31,4.85l31.15,8.77,74.51-22.05c2.26-5.76,2.9-12.09,1.92-19l2.1-1.76,1.97-2.52c23.58-6.26,47.08-14.73,67.86-27.72l3.17.24Z"/>
      <path class="cls-24" d="M.02,273.82c38.73,32.24,107.74,34.98,156.47,30.97,8.46-.69,54.37-10.85,56.52-8.97,1.38,1.2-17.01,28.28-20.99,29.98l97-23.99-2.11,3c-41.1,14.32-82.25,28.83-123.45,43.51-27.67,10.83-56.55,22.51-79.07,41.99l-3.37.51c-25.43-9.05-27.36-40.38-36-62l5.06-.05c30.15,11.98,63.34,13.35,95.16,8.43-36.71-.16-73.11-8.89-106.36-24.38l-3.85-3.99C19.62,301.33.84,293.41.02,273.82Z"/>
      <path class="cls-22" d="M415.02,320.82c2.8,2.76,2.87,8.28,0,11,2.09,2.85,3.06,6.5,2.89,10.96,1.36,3.9,1.39,7.24.11,10.04-.28.83-.59,1.63-1.02,2.37-2.94,5-21.46,13.18-27.91,15.94-6.78,2.9-31.14,12.34-36.63,11.41-.83-.14-1.64-.41-2.44-.72l-2.34-1.76c-1.69-4.12-3.58-10.97-1.66-14.24-2.49-2.22-3.61-5.4-3.35-9.54-.93-6.83-2.15-16.45.35-22.46l.41-2.78c-2.52-2.11-1.49-9.34,1.59-11.22-2.99-2.24,1.2-18.94,2.75-20.36l2.25-1.64c-3.02-3.13,2.43-9.22,5-12l.91-2.74c22.09-12.23,44.55-25.12,63.27-42.23l2.82-.03c.99,4.66-4.33,12.08-3.97,16.44.43,5.14,7.58,7.03,8.01,12,.69,8.04-10.32,37.86-11.05,51.56Z"/>
      <path class="cls-51" d="M208.02,400.82c1.55,2.28.49,3-2,2l-10.03,3.42c-40.05,6.33-81.57,15.53-114.47,40.5l-4.5,1.08c-11.27-17.41-17.05-22.99-3-41-.16-.61-.28-1.22-.25-1.82.58-11.44,64.03-42.09,77.2-46.1l3.06.92c16.38-4.88,64.98-11.33,74.77,5.58,7.6,13.14-6.3,33.84-20.77,35.42Z"/>
      <path class="cls-25" d="M422.02,373.82c-17.62,12.54-51.84,25.14-73,30-.45.62-.93,1.21-1.5,1.7s-1.09.91-1.68,1.04c-11.89,2.51-24.04,3.68-36.14,4.82-33.7.88-66.68,4.97-98.94,12.25l-3.74-.81c-37.86,2.81-73.71,17.98-106,37,.23-.86.5-1.7.9-2.48,4.11-8.19,36.14-24.22,46.05-29.08,18.83-9.25,38.66-17.52,58.05-25.44.25-.14.95-1.33,2-2l8.05-2.3c42.6-.38,84.02-8.2,125.54-16.58,2.77-.56,5.61-.38,8.4-.12,24.36-6.58,47.33-14,68-29,1.2-3.41,3.72-6.4,7.57-8.96,2.77-3.84,5.91-6.18,9.43-7.04l-.09-2.84c4.79-3.95,8.1-8.64,9.92-14.09l2.18-1.07c19.89,14.12-12.61,46.18-25,55Z"/>
      <path class="cls-40" d="M323.02,252.82l-5.06,3.68c-15.52,5.68-33.63,10.93-49.71,14.81-.96.23-1.99.17-3.04.09s-2.13-.32-3.18-.59c-25.33,6.15-53.87,13.34-80,10l70-39,3.16-.85c24.83,9.47,54.83,1.53,69.76-20.96l3.08-1.2c3.03,2.7,7.17.4,10,0,14.03-1.96,70.85-12.25,80.29-8.79,2.16.79,3.31,2.9,2.6,5.1-2.19,6.81-85.66,33.87-97.89,37.69Z"/>
      <path class="cls-53" d="M422.02,240.82c-13.7,14.52-48.73,35.46-67,45-4.42,4.6-9.85,8.01-16.28,10.23-46.08,19.09-93.1,35.73-141.05,49.94-14.3,5.52-28.85,10.13-43.67,13.83-23.65,9.55-64.26,26.81-80,47-5.97-1.68,5.41-14.37,7-16,36.06-37.02,155.59-67.78,208-89,.82-.33,1.85-.53,3-1,4.52-5.11,12.14-8.25,19-8,17.1-7.67,31.42-13.91,47.52-23.98,9.59-6,71.74-50.19,73.48-56.02,6.53,8.82-3.88,21.51-10,28Z"/>
      <path class="cls-9" d="M206.02,402.82c-36.63,21.3-69.62,27.14-105,57-2.79,2.35-15.12,10.85-15.83,13.74-.42,1.67,3.29,29.63,3.83,34.26-8.34,4.51-27.68-4.59-31.85-11.65-10.07-17.06,7.43-37.85,19.85-48.35,33.66-28.45,86.36-39.28,129-45Z"/>
      <path class="cls-50" d="M292.02,458.82c19.53.6,32.63,10.84,50.99,15.01l-12.99,1.99c-33.31,1.03-75.48,12.57-105,28-5.4-.37-10.47-3.97-13.58-8.4-12.28-17.49,21.45-31.58,34.58-32.6l2.87-2.32c6.32-1.14,38.41-5.18,41.62-3.04.56.37,1.04.85,1.51,1.37Z"/>
      <path class="cls-44" d="M387.02,442.82c-29.73,12.44-63.71,10.96-95,16-14-.43-31.79,2.53-46,4-10.6,2.87-21.35,4.62-32.22,6.02l-5.78-1.02-5.99,3.2c-14.78,2.96-29.29,7.15-43.22,12.95l-4.79-.15c-4.47,5.28-14.1,10.46-21,11l-.17,2.43c-64.08,37.76-15.45,47.34,31.05,43.49l1.12,2.08c8.88.75.67,2.01-2,4-21.53,1.75-65.61,8.96-72-19,25.61-46.6,91.8-65.72,141.53-71.97s103.71-6.77,154.47-13.03Z"/>
      <path class="cls-16" d="M35.02,308.82c42.55,20.7,92.88,31.28,139.99,24.01-42.16,11.58-89.23,13.82-129.99-4.01-2.75-6.89-6.66-13.44-10-20Z"/>
      <path class="cls-19" d="M447.02,318.82c-.79,7.94-7.33,12.77-12,18-3.81-2.68-8.6-3.13-14.36-1.37-3.4.32-5.08,0-5.64-3.63-.08-3.61-.19-7.4,0-11,.58-1.41,8.03-4,8.5-4h15c4.7,0,3.11-1.83,8.5,2Z"/>
      <path class="cls-31" d="M323.02,252.82c-3.55,3.52-6.68,14.1-10.05,16.45-1.43.99-31.21,11.06-32.94,11.16-5.41.31-13.21-7.16-18.01-9.6,19.89-4.83,41.34-11.86,61-18Z"/>
      <path class="cls-12" d="M292.02,300.82c-3.45.07,0-4.28-1.53-7.97-.69-1.66-6.61-5.11-5.46-7.01.7-1.17,25.08-9.02,25.99-8.01.5.56-1.46,12.48,0,14.99-6.35,2.85-12.57,5.36-19,8Z"/>
      <path class="cls-30" d="M349.02,403.82c-.6,5.75,1.87,18.4-3.04,22.46l-75.58,22.47c-26.25-6.79-52.39-18.03-80.38-12.95,4.54-5.98,9.87-10.34,17-12.99,36.06-13.38,100.25-9.42,142-19Z"/>
      <path class="cls-23" d="M133.02,494.82l2.4,1.37c6.72,19.17,28.27,29.01,47.06,32.41l1.54,2.22c-4.41,3.26-8.97,7.24-13,11-1.6.41-4.7-.97-6,1-14.52-1.23-54.01,4.45-63.44-10.05s21.62-32.09,31.44-37.95Z"/>
      <path class="cls-49" d="M208.02,467.82l-.24,2.88c-18.36,16.63-1.02,27.48,15.59,33.11l.65,1c-9.28,4.97-18.35,11.02-27,17-7.19,1.98-17.3-3.29-23.63-7.28-5.23-3.3-10.04-7.38-13.68-12.42-3.34-4.63-8.68-13.18-5.7-18.31,18.24-7.91,34.48-12.39,54-16Z"/>
      <path class="cls-47" d="M154.02,483.82c4.1,22.07,22.62,33.2,43,38-4.27,2.95-8.85,5.93-13,9-18.97-2.15-46.76-15.58-51-36,7.04-4.2,13.44-7.72,21-11Z"/>
      <path class="cls-18" d="M246.02,462.82c-20,6.7-54.98,22.1-21,41-.35.19-.64.8-1,1-21.3-4.18-37.48-18.74-16-37,12.79-2.37,25.08-3.67,38-5Z"/>
      <path class="cls-11" d="M355.02,285.82c-.66,4.14-3.77,8.32-5,12l-2.34,2.8-49.09,15c6.07,4.5,12.25,8.75,18.53,12.75l25.81-9.89,2.08,1.34c-.73,4.7-.64,9.51-2,14-1.21.08-1.96-.51-2.22-1.64l-15.23,6.63c5.5,8.43,7.87,17.61,7.53,27.88.2.63,10.78,0,12.92-.88,1.02,5.32,3.22,10.59,4,16-46.04,12.43-94.6,17.45-142,19,6.44-4.1,14.37-8.32,17.78-15.72,18.6-40.44-52.73-26.41-71.78-25.28,65.85-26.6,137.82-41.01,201-74Z"/>
      <path class="cls-13" d="M345.02,319.82l-28.55,10.93-22.45-15.93,55.99-17.01c-2.17,6.5-3.94,15.18-5,22Z"/>
      <path class="cls-3" d="M346.02,365.82c.64,5.49-11.95.53-14.99,5,.23-6.41-.06-12.76-1.49-19.02-1.05-4.62-6.43-12.75-6.51-13.5-.13-1.23,17.53-8.44,18.55-8.43,2.62.01,1.24,2.05,1.44,3.95,1.13,10.69.9,21.02,3,32Z"/>
      <path class="cls-38" d="M415.02,331.82c3.42,5.25,19.67-4.42,20,5-5.46,6.12-10.33,11.16-17,16-1.96-6.4-2.85-14.32-3-21Z"/>
      <path class="cls-35" d="M248.02,124.82l2.44.59c3.94,10.95,9.62,20.44,17.02,28.47,2.47-1.14,4.31-1.16,5.54-.07,2.98-1.08,10.21-7.37,10.01-4.5-.88,12.57-23.67,12.08-32.02,8.49-.7-4.44,11.43-.43,12-2.48,1.6-5.76-10.02-7.76-14.38-7.39-31.48,2.66-35.89,43.56-24.61,66.88-21.04,33.1-68.96,37.31-95,8,37.15,21.24,82.15-11.2,79.96-52.47-.59-11.06-7.91-31.98-19.96-34.53-.04-.53.04-.99.26-1.39,0,0,.22-.37.58-.64,1.31-.96,9.41,5.63,12.07,4.07,1.56-.91.38-4.13.83-8,.44-3.81,2.52-8.7,9.25-14.04,1.39.36,2.36,1.01,1.78,2.28l-6.58,11.96c9.15,5.3,20.8,7.54,31.33,8.64,9.12.95,15.28,1.4,7.64-8.79-.93-2.69-1.77-5.28,1.84-5.09Z"/>
      <path class="cls-4" d="M339.02,99.82c-8.42,7.97-59.1-10.25-69.01-18.49-18.1-15.07-16.88-30.56-26.48-43.52-2.44-3.29-.41,3.23-3.51,4.01-.78-.09-1.92-.38-1.94-.93-.11-2.81,1.44-17.03,2.58-18.85l2.36-.22c1.18.1,2.35.23,3.49.51s2.2.57,3.15,1.11c16.63,9.35,33.68,21.75,48.48,33.82,9.95,8.12,35.23,29.01,39.76,39.19.48,1.08.82,2.21,1.13,3.37Z"/>
      <path class="cls-41" d="M329.02,159.82c10.31,18.45,9.53,40.79-1,59-14.84,25.66-49.55,34.81-76,23-6.64-2.96-12.05-7.79-17-13,52.56,24.28,103.63-37.13,70-84,8.96-.21,18.06,8.35,24,15Z"/>
      <path class="cls-5" d="M172.02,139.82c2.77-36.24,17.03-68.36,38.19-97.31,7.2-9.86,16.16-17.69,23.24-26.76,4-5.13,5.33-18.68,14.29-15.19,12.44,4.85-4.66,18.58-3.72,19.24,1.6,1.12,12.38-1.58,15,1.01-.04.47-.12.93-.31,1.33-.65,1.32-13.67.26-15.69-.33-1.61,1.52-2.8,16.66-3,20-1.37,23.18,2.18,46.25,10,68,3.76,8.4,8.05,16.62,12.86,24.67,3.71,2.43,7.55,7.69,7.14,12.33,1.31,1.9,2.45,4.72,3,7-1.79.65-3.37,2.24-5.52,2.08-6.09-.47-16.83-24.99-19.48-31.08-4.5-2.52-7.65-10.08-6-15-.75-.64-1.46-1.31-2.07-2.06-6.61-8.22-9.69-44.12-10.08-56.15.2-2.9.01-17.18-.72-16.53-26.32,23.25-39.46,66.43-46.28,99.77l-2.84,3.97c-.23,1.18.29,2.95,0,4,3.82,7.15-6.88,8.49-8,2-.07-1.66.1-3.34,0-5Z"/>
      <path class="cls-43" d="M259.02,20.82c33.68.4,57.35,13.12,71.17,44.33,2.16,4.88,12.02,31.64,8.83,34.67-26.8-31.69-60.38-57.14-96-78,1.92-1.81,12.67-1.04,16-1Z"/>
      <path class="cls-10" d="M272.02,102.82l-.9,2.07c-2.45.38-16.03,2.9-16.97,4.35-1.02,1.58,9.14,23.06,10.74,23.61,2.33.8,17.21-20.02,14.73-25.16l1.39-1.87c7.15,2.8,11.75,6.1,15.81,12.69,3.47,5.62,5.61,19.07,6.37,20.12,2.19,3.03,17.51,6.31,25.82,21.19-7.1-6.47-15.61-10.31-24-15-2.56-1.43-5.49-5.91-7.03-6.47-7.1-2.59-22.98,2.2-27.97,8.47-8.52-12.39-14.83-22.62-20-37,1.26-7.46,16.16-6.97,22-7Z"/>
      <path class="cls-46" d="M281.02,105.82c4.22,7.24-11.64,29.3-16.51,28.88-2.64-.23-13.58-23.08-12.4-26.25.85-2.28,17.48-5.69,19.91-5.63,3.85.09,5.87,1.77,9,3Z"/>
      <path class="cls-29" d="M305.02,144.82c17,14.96,15.47,43.09,4.77,61.52-14.54,25.04-49.26,40.09-74.77,22.48-2.7-2.84-9.48-10.86-11-14-5.25-1.94-6.61-13.05-7.22-18.67-2.43-22.42,6.05-47.95,31.68-50.2,5.92-.52,9.82.88,13.51,5.55,2.25,2.85,4.41,5.6-.41,6.44,6.47.21,15.11-.05,18.8-6.17-2.98,2.75-5.44,3.43-7.37,2.06-2.7.25-5.01-5.21-3-7-1.78-4.9,9.48-8.62,13.77-9.8,9.19-2.52,18.53-2.58,21.23,7.8Z"/>
      <path class="cls-7" d="M248.75,163.1c7.23,5.8-4.78,26.89-13.7,23.24-11.14-4.56,2.91-31.9,13.7-23.24Z"/>
      <path class="cls-17" d="M242.02,109.82c1.72,5.21,3.82,9.99,6,15-3.09,4.08,6.63,10.82,3,14.49-5.11,5.18-42.6-3.06-45.58-8.47-1.53-2.77,7.53-11.57,6.58-15.02,8.05-7.51,19.99-11.1,30-6Z"/>
      <path class="cls-29" d="M129.02,222.82c-28.55-32.14-16.3-95.75,32.38-89.88,5.88.71,10.27,1.12,10.62,6.88,2.9.98,2.82,3.97,0,5l-1.84,1.48c-2.76-1.83-15.18-6.59-8.26-.37,5.42,4.87,19.95,4.23,26.36,1.18-4.09.79-10.21,1.6-8.26-4.29-2.8-.37-2.82-3.34,0-4,.92-4.51,6.35-6.91,9-3,8.34.21,11.82,5.23,15.48,12.01,15.96,29.58,1.12,66.18-29.47,79.25-14.62,6.24-33.62,7.06-46.02-4.26Z"/>
      <path class="cls-2" d="M140.78,147.01c18.31-2.24-1.18,22.93-3.76,24.31-14.23,7.6-10.43-22.58,3.76-24.31Z"/>
      <path class="cls-42" d="M172.02,144.82c4.56,1.32,5.91,5.59,8-2,1.34,6.07,9.22.31,14,2.01-5.53,9.51-35.08,8.73-35.83-1.74-.44-6.11,9.58.49,13.84,1.73Z"/>
    </g>
  </g>
</svg>
